<svg xmlns="http://www.w3.org/2000/svg" viewBox="0 0 1000 1180" width="1000" height="1180">
  <defs>
    <radialGradient id="red" cx="35%" cy="18%" r="90%">
      <stop offset="0%" stop-color="#e35a45"/>
      <stop offset="55%" stop-color="#c73528"/>
      <stop offset="100%" stop-color="#951f18"/>
    </radialGradient>
    <radialGradient id="navy" cx="74%" cy="20%" r="95%">
      <stop offset="0%" stop-color="#28406e"/>
      <stop offset="55%" stop-color="#182c50"/>
      <stop offset="100%" stop-color="#0a1526"/>
    </radialGradient>
    <linearGradient id="ribbon" x1="0%" y1="0%" x2="0%" y2="100%">
      <stop offset="0%" stop-color="#294672"/>
      <stop offset="45%" stop-color="#182c50"/>
      <stop offset="100%" stop-color="#0a1526"/>
    </linearGradient>
    <linearGradient id="ribbonFold" x1="0%" y1="0%" x2="0%" y2="100%">
      <stop offset="0%" stop-color="#152847"/>
      <stop offset="100%" stop-color="#060c1a"/>
    </linearGradient>
    <linearGradient id="gold" x1="0%" y1="0%" x2="100%" y2="0%">
      <stop offset="0%" stop-color="#e3c47f"/>
      <stop offset="45%" stop-color="#a9793c"/>
      <stop offset="55%" stop-color="#a9793c"/>
      <stop offset="100%" stop-color="#e3c47f"/>
    </linearGradient>
    <radialGradient id="cream" cx="50%" cy="12%" r="105%">
      <stop offset="0%" stop-color="#fffcf3"/>
      <stop offset="60%" stop-color="#f4ead0"/>
      <stop offset="100%" stop-color="#e4d6b0"/>
    </radialGradient>
    <linearGradient id="borderBevel" x1="15%" y1="10%" x2="85%" y2="95%">
      <stop offset="0%" stop-color="#33507f"/>
      <stop offset="45%" stop-color="#101d3a"/>
      <stop offset="100%" stop-color="#050b18"/>
    </linearGradient>
    <linearGradient id="dimFill" x1="0%" y1="0%" x2="0%" y2="100%">
      <stop offset="0%" stop-color="#ffffff"/>
      <stop offset="100%" stop-color="#e6ddc4"/>
    </linearGradient>

    <path id="shieldOuter" d="M500,50
      Q 420 88 158 193
      C 42 246 4 372 4 490
      C 4 642 88 840 248 972
      C 348 1054 430 1086 500 1150
      C 570 1086 652 1054 752 972
      C 912 840 996 642 996 490
      C 996 372 958 246 842 193
      Q 580 88 500 50 Z"/>

    <path id="shieldInner" d="M500,86
      Q 434 118 210 210
      C 108 254 74 362 74 468
      C 74 600 148 772 288 888
      C 372 958 442 984 500 1040
      C 558 984 628 958 712 888
      C 852 772 926 600 926 468
      C 926 362 892 254 790 210
      Q 566 118 500 86 Z"/>

    <clipPath id="clipInner"><use href="#shieldInner"/></clipPath>
    <clipPath id="clipOuter"><use href="#shieldOuter"/></clipPath>

    <path id="arcTop" d="M 230 330 C 300 255 700 255 770 330" fill="none"/>

    <filter id="grain" x="-10%" y="-10%" width="120%" height="120%">
      <feTurbulence type="fractalNoise" baseFrequency="0.85" numOctaves="2" seed="11" result="noise"/>
      <feColorMatrix in="noise" type="matrix"
        values="0 0 0 0 1
                0 0 0 0 1
                0 0 0 0 1
                0 0 0 0.10 0" result="grainWhite"/>
      <feComposite in="grainWhite" in2="SourceAlpha" operator="in" result="grainClipped"/>
      <feBlend in="SourceGraphic" in2="grainClipped" mode="overlay"/>
    </filter>

    <filter id="softBlur" x="-30%" y="-30%" width="160%" height="160%">
      <feGaussianBlur stdDeviation="9"/>
    </filter>

    <filter id="crestShadow" x="-30%" y="-30%" width="160%" height="160%">
      <feDropShadow dx="0" dy="16" stdDeviation="16" flood-color="#000000" flood-opacity="0.32"/>
    </filter>

    <filter id="ribbonShadow" x="-30%" y="-40%" width="160%" height="180%">
      <feDropShadow dx="0" dy="9" stdDeviation="8" flood-color="#000000" flood-opacity="0.38"/>
    </filter>

    <filter id="dimCrisp" x="-20%" y="-40%" width="140%" height="180%">
      <feDropShadow dx="0" dy="3" stdDeviation="2.2" flood-color="#000000" flood-opacity="0.45"/>
    </filter>
  </defs>

  <g filter="url(#crestShadow)">
    <!-- outer cream medallion band -->
    <use href="#shieldOuter" fill="url(#cream)" stroke="url(#borderBevel)" stroke-width="9"/>
    <use href="#shieldOuter" fill="none" stroke="#fffdf6" stroke-width="1.4" opacity="0.6"
         transform="translate(500,600) scale(0.992) translate(-500,-600)"/>
    <use href="#shieldOuter" fill="url(#cream)" filter="url(#grain)" opacity="0.5" clip-path="url(#clipOuter)"/>

    <!-- inner content: diagonal red / navy split -->
    <g clip-path="url(#clipInner)">
      <rect x="60" y="70" width="880" height="1000" fill="url(#red)"/>
      <polygon points="926,190 926,1040 300,1040" fill="url(#navy)"/>
      <use href="#shieldInner" fill="none" filter="url(#grain)" opacity="0.55"/>
      <!-- inset vignette for a stitched / recessed patch feel -->
      <use href="#shieldInner" fill="none" stroke="#000814" stroke-width="46" opacity="0.22" filter="url(#softBlur)"/>
      <!-- soft top sheen for a domed, embroidered look -->
      <ellipse cx="430" cy="230" rx="420" ry="220" fill="#ffffff" opacity="0.08"/>
    </g>
    <use href="#shieldInner" fill="none" stroke="url(#borderBevel)" stroke-width="7"/>
    <use href="#shieldInner" fill="none" stroke="#f7f1de" stroke-width="3"
         transform="translate(500,565) scale(0.983) translate(-500,-565)"/>

    <!-- MUJERES arched -->
    <text font-family="Georgia, 'Times New Roman', serif" font-size="58" font-weight="700"
          letter-spacing="7" fill="url(#gold)" transform="translate(5.5,0)">
      <textPath href="#arcTop" startOffset="50%" text-anchor="middle">MUJERES</textPath>
    </text>

    <!-- ribbon banner -->
    <g filter="url(#ribbonShadow)">
      <!-- folded ends -->
      <polygon points="170,655 20,700 80,750 20,800 170,845" fill="url(#ribbonFold)"/>
      <polygon points="830,655 980,700 920,750 980,800 830,845" fill="url(#ribbonFold)"/>
      <polygon points="20,700 80,750 20,800 55,750" fill="#040810"/>
      <polygon points="980,700 920,750 980,800 945,750" fill="#040810"/>

      <!-- main band -->
      <path d="M170,655 L830,655 L830,845 L170,845 Z" fill="url(#ribbon)"/>
      <use href="#shieldInner" fill="none" filter="url(#grain)" opacity="0.35" clip-path="url(#clipInner)"/>
      <path d="M170,663 L830,663" stroke="#f7f1de" stroke-width="4" opacity="0.85"/>
      <path d="M170,837 L830,837" stroke="#f7f1de" stroke-width="4" opacity="0.85"/>

      <text x="502" y="792" font-family="Georgia, 'Times New Roman', serif" font-size="122"
            font-weight="800" letter-spacing="2" fill="#0a1526" text-anchor="middle" filter="url(#dimCrisp)">DIM</text>
      <text x="502" y="789" font-family="Georgia, 'Times New Roman', serif" font-size="122"
            font-weight="800" letter-spacing="2" fill="url(#dimFill)" stroke="#0a1526" stroke-width="1.5"
            text-anchor="middle">DIM</text>
    </g>

    <!-- 2025 -->
    <text x="505" y="965" font-family="Georgia, 'Times New Roman', serif" font-size="40"
          font-weight="600" letter-spacing="9" fill="url(#gold)" text-anchor="middle">2025</text>
  </g>
</svg>
